# xmcd
#
# Track frame offsets: 
#        150
#        13691
#        39032
#        54601
#        78922
#        98046
#        110297
#        125011
#        159152
#        179407
#        198427
#        218549
#        230468
#        255989
#        268779
#
# Disc length: 3793 seconds
#
# Revision: 0
# Processed by: cddbd v1.5.2PL0 Copyright (c) Steve Scherf et al.
# Submitted via: ExactAudioCopy v1.2
#
DISCID=b80ecf0f
DTITLE=The Little Red Rooster Blues Band - Lock up the Liquor
DYEAR=2018
DGENRE=Blues
TTITLE0=Pitchin' Woo (feat. Anthony Geraci)
TTITLE1=Drinkin' Wine on My Dime (feat. Anthony Geraci)
TTITLE2=Rather Be Lonesome
TTITLE3=Cotton Mouth
TTITLE4=Ready for Goodbye (feat. Anthony Geraci)
TTITLE5=Just a Distant Memory (feat. Anthony Geraci)
TTITLE6=Thrift Shop Rubbers
TTITLE7=Nothin' Left Between Us (feat. Anthony Geraci)
TTITLE8=Oughtta Be a Law
TTITLE9=Trouble in the Jungle
TTITLE10=Six Strong Men (feat. Anthony Geraci)
TTITLE11=Livin' at Jerry's House
TTITLE12=4 O'Clock in the Morning (feat. Steve Guyger)
TTITLE13=Can't Believe She's Mine
TTITLE14=Lock up the Liquor (feat. Anthony Geraci)
EXTD=
EXTT0=
EXTT1=
EXTT2=
EXTT3=
EXTT4=
EXTT5=
EXTT6=
EXTT7=
EXTT8=
EXTT9=
EXTT10=
EXTT11=
EXTT12=
EXTT13=
EXTT14=
PLAYORDER=
